<svg width="512" height="512" viewBox="0 0 380 420" xmlns="http://www.w3.org/2000/svg">
<defs>
  <clipPath id="cc">
    <circle cx="190" cy="185" r="138"/>
  </clipPath>
</defs>
<circle cx="190" cy="185" r="152" fill="#c8a03c"/>
<circle cx="190" cy="185" r="146" fill="#0a1628"/>
<circle cx="190" cy="185" r="138" fill="#0d1f3c"/>
<rect x="52" y="47" width="276" height="276" fill="#0d1f3c" clip-path="url(#cc)"/>
<circle cx="190" cy="185" r="100" fill="none" stroke="#1a3a6e" stroke-width="0.8" clip-path="url(#cc)"/>
<circle cx="190" cy="185" r="70" fill="none" stroke="#1a3a6e" stroke-width="0.7" clip-path="url(#cc)"/>
<line x1="190" y1="47" x2="190" y2="323" stroke="#1a3a6e" stroke-width="0.7" clip-path="url(#cc)"/>
<line x1="148" y1="50" x2="148" y2="320" stroke="#1a3a6e" stroke-width="0.7" clip-path="url(#cc)"/>
<line x1="232" y1="50" x2="232" y2="320" stroke="#1a3a6e" stroke-width="0.7" clip-path="url(#cc)"/>
<line x1="52" y1="185" x2="328" y2="185" stroke="#1a3a6e" stroke-width="0.7" clip-path="url(#cc)"/>
<line x1="55" y1="148" x2="325" y2="148" stroke="#1a3a6e" stroke-width="0.7" clip-path="url(#cc)"/>
<line x1="55" y1="222" x2="325" y2="222" stroke="#1a3a6e" stroke-width="0.7" clip-path="url(#cc)"/>
<circle cx="190" cy="185" r="72" fill="none" stroke="#c8a03c" stroke-width="4.5" clip-path="url(#cc)"/>
<line x1="190" y1="113" x2="190" y2="158" stroke="#c8a03c" stroke-width="4.5" stroke-linecap="round" clip-path="url(#cc)"/>
<line x1="190" y1="212" x2="190" y2="257" stroke="#c8a03c" stroke-width="4.5" stroke-linecap="round" clip-path="url(#cc)"/>
<line x1="118" y1="185" x2="163" y2="185" stroke="#c8a03c" stroke-width="4.5" stroke-linecap="round" clip-path="url(#cc)"/>
<line x1="217" y1="185" x2="262" y2="185" stroke="#c8a03c" stroke-width="4.5" stroke-linecap="round" clip-path="url(#cc)"/>
<line x1="139" y1="134" x2="169" y2="164" stroke="#c8a03c" stroke-width="4.5" stroke-linecap="round" clip-path="url(#cc)"/>
<line x1="211" y1="206" x2="241" y2="236" stroke="#c8a03c" stroke-width="4.5" stroke-linecap="round" clip-path="url(#cc)"/>
<line x1="241" y1="134" x2="211" y2="164" stroke="#c8a03c" stroke-width="4.5" stroke-linecap="round" clip-path="url(#cc)"/>
<line x1="169" y1="206" x2="139" y2="236" stroke="#c8a03c" stroke-width="4.5" stroke-linecap="round" clip-path="url(#cc)"/>
<circle cx="190" cy="113" r="6" fill="#c8a03c" clip-path="url(#cc)"/>
<circle cx="190" cy="257" r="6" fill="#c8a03c" clip-path="url(#cc)"/>
<circle cx="118" cy="185" r="6" fill="#c8a03c" clip-path="url(#cc)"/>
<circle cx="262" cy="185" r="6" fill="#c8a03c" clip-path="url(#cc)"/>
<circle cx="139" cy="134" r="6" fill="#c8a03c" clip-path="url(#cc)"/>
<circle cx="241" cy="134" r="6" fill="#c8a03c" clip-path="url(#cc)"/>
<circle cx="139" cy="236" r="6" fill="#c8a03c" clip-path="url(#cc)"/>
<circle cx="241" cy="236" r="6" fill="#c8a03c" clip-path="url(#cc)"/>
<circle cx="190" cy="185" r="52" fill="#0a1628" clip-path="url(#cc)"/>
<circle cx="190" cy="185" r="50" fill="#0d2044" clip-path="url(#cc)"/>
<ellipse cx="190" cy="158" rx="22" ry="30" fill="#1a0d08" clip-path="url(#cc)"/>
<path d="M168 148 Q162 170 165 195 Q170 185 172 175 Q170 165 168 148Z" fill="#1a0d08" clip-path="url(#cc)"/>
<path d="M212 148 Q218 170 215 195 Q210 185 208 175 Q210 165 212 148Z" fill="#1a0d08" clip-path="url(#cc)"/>
<path d="M168 152 Q160 175 163 200" fill="none" stroke="#1a0d08" stroke-width="8" stroke-linecap="round" clip-path="url(#cc)"/>
<path d="M212 152 Q220 175 217 200" fill="none" stroke="#1a0d08" stroke-width="8" stroke-linecap="round" clip-path="url(#cc)"/>
<ellipse cx="190" cy="155" rx="18" ry="21" fill="#c8956c" clip-path="url(#cc)"/>
<ellipse cx="190" cy="136" rx="19" ry="8" fill="#1a0d08" clip-path="url(#cc)"/>
<rect x="170" y="128" width="40" height="9" rx="2" fill="#0a1628" clip-path="url(#cc)"/>
<rect x="174" y="120" width="32" height="10" rx="2" fill="#0a1628" clip-path="url(#cc)"/>
<rect x="166" y="135" width="48" height="4" rx="1" fill="#082050" clip-path="url(#cc)"/>
<ellipse cx="190" cy="125" rx="7" ry="5" fill="#c8a03c" clip-path="url(#cc)"/>
<ellipse cx="184" cy="153" rx="2.8" ry="3" fill="#2d1810" clip-path="url(#cc)"/>
<ellipse cx="196" cy="153" rx="2.8" ry="3" fill="#2d1810" clip-path="url(#cc)"/>
<circle cx="185" cy="152" r="0.9" fill="white" clip-path="url(#cc)"/>
<circle cx="197" cy="152" r="0.9" fill="white" clip-path="url(#cc)"/>
<path d="M185 161 Q190 166 195 161" fill="none" stroke="#8B4513" stroke-width="1.3" clip-path="url(#cc)"/>
<ellipse cx="190" cy="195" rx="26" ry="22" fill="#ffffff" clip-path="url(#cc)"/>
<rect x="186" y="173" width="8" height="14" fill="#1a1a2e" clip-path="url(#cc)"/>
<rect x="160" y="177" width="18" height="6" rx="1" fill="#ffffff" clip-path="url(#cc)"/>
<rect x="202" y="177" width="18" height="6" rx="1" fill="#ffffff" clip-path="url(#cc)"/>
<rect x="160" y="178" width="18" height="2" fill="#c8a03c" clip-path="url(#cc)"/>
<rect x="160" y="181" width="18" height="2" fill="#c8a03c" clip-path="url(#cc)"/>
<rect x="202" y="178" width="18" height="2" fill="#c8a03c" clip-path="url(#cc)"/>
<rect x="202" y="181" width="18" height="2" fill="#c8a03c" clip-path="url(#cc)"/>
<circle cx="190" cy="182" r="2" fill="#c8a03c" clip-path="url(#cc)"/>
<circle cx="190" cy="189" r="2" fill="#c8a03c" clip-path="url(#cc)"/>
<circle cx="190" cy="196" r="2" fill="#c8a03c" clip-path="url(#cc)"/>
<path d="M52 268 Q100 258 148 268 Q196 278 244 268 Q292 258 328 268 L328 323 L52 323Z" fill="#082550" clip-path="url(#cc)"/>
<path d="M52 280 Q100 270 148 280 Q196 290 244 280 Q292 270 328 280 L328 323 L52 323Z" fill="#061a40" clip-path="url(#cc)"/>
<text x="155" y="88" text-anchor="middle" font-size="9" fill="#c8a03c" opacity="0.7" clip-path="url(#cc)">★</text>
<text x="190" y="80" text-anchor="middle" font-size="7" fill="#c8a03c" opacity="0.5" clip-path="url(#cc)">★</text>
<text x="225" y="88" text-anchor="middle" font-size="9" fill="#c8a03c" opacity="0.7" clip-path="url(#cc)">★</text>
<circle cx="190" cy="185" r="134" fill="none" stroke="#c8a03c" stroke-width="0.8" stroke-dasharray="3 4"/>
<text x="190" y="358" text-anchor="middle" font-family="Georgia,serif" font-size="30" font-weight="bold" fill="#c8a03c" letter-spacing="5">CREW EVAL</text>
<line x1="60" y1="367" x2="128" y2="367" stroke="#c8a03c" stroke-width="1"/>
<circle cx="190" cy="367" r="3" fill="#c8a03c"/>
<line x1="252" y1="367" x2="320" y2="367" stroke="#c8a03c" stroke-width="1"/>
<text x="190" y="385" text-anchor="middle" font-family="Georgia,serif" font-size="10" fill="#8899bb" letter-spacing="3">MARITIME EVALUATION</text>
<text x="190" y="402" text-anchor="middle" font-family="Georgia,serif" font-size="9" fill="#445577" letter-spacing="2">MÉXICO</text>
</svg>
